<svg width="1395" height="175" viewBox="0 0 1395 175" fill="none" xmlns="http://www.w3.org/2000/svg">
<path d="M-0.00106546 172.648V41.7393H27.6765V149.829H83.7987V172.648H-0.00106546ZM96.3778 172.648V41.7393H184.588V64.5589H124.055V95.7521H180.05V118.572H124.055V149.829H184.844V172.648H96.3778ZM236.753 172.648V41.7393H289.168C298.798 41.7393 306.831 43.1669 313.266 46.022C319.7 48.8771 324.537 52.8402 327.776 57.9112C331.014 62.9396 332.634 68.7351 332.634 75.2976C332.634 80.4112 331.611 84.907 329.565 88.7848C327.52 92.62 324.707 95.7734 321.128 98.245C317.591 100.674 313.543 102.4 308.983 103.423V104.701C313.969 104.914 318.635 106.32 322.982 108.92C327.371 111.519 330.929 115.163 333.656 119.85C336.384 124.495 337.747 130.035 337.747 136.469C337.747 143.415 336.021 149.616 332.57 155.07C329.161 160.482 324.111 164.765 317.42 167.918C310.73 171.072 302.484 172.648 292.683 172.648H236.753ZM264.43 150.021H286.994C294.707 150.021 300.332 148.55 303.869 145.61C307.406 142.627 309.175 138.664 309.175 133.721C309.175 130.099 308.301 126.903 306.554 124.133C304.807 121.363 302.314 119.19 299.075 117.613C295.879 116.036 292.065 115.248 287.634 115.248H264.43V150.021ZM264.43 96.5192H284.949C288.741 96.5192 292.108 95.8587 295.048 94.5376C298.031 93.174 300.375 91.2564 302.08 88.7848C303.827 86.3132 304.7 83.3516 304.7 79.8999C304.7 75.1697 303.017 71.3558 299.651 68.4581C296.327 65.5604 291.597 64.1115 285.46 64.1115H264.43V96.5192ZM470.305 107.194C470.305 121.469 467.599 133.614 462.187 143.629C456.818 153.643 449.488 161.292 440.199 166.576C430.951 171.817 420.554 174.438 409.005 174.438C397.372 174.438 386.931 171.796 377.684 166.512C368.437 161.228 361.129 153.579 355.76 143.565C350.39 133.55 347.706 121.427 347.706 107.194C347.706 92.9183 350.39 80.7734 355.76 70.7592C361.129 60.745 368.437 53.1172 377.684 47.8757C386.931 42.5916 397.372 39.9496 409.005 39.9496C420.554 39.9496 430.951 42.5916 440.199 47.8757C449.488 53.1172 456.818 60.745 462.187 70.7592C467.599 80.7734 470.305 92.9183 470.305 107.194ZM442.244 107.194C442.244 97.9467 440.859 90.1484 438.089 83.799C435.362 77.4496 431.505 72.6342 426.52 69.353C421.534 66.0717 415.696 64.4311 409.005 64.4311C402.315 64.4311 396.477 66.0717 391.491 69.353C386.505 72.6342 382.627 77.4496 379.858 83.799C377.13 90.1484 375.767 97.9467 375.767 107.194C375.767 116.441 377.13 124.239 379.858 130.589C382.627 136.938 386.505 141.754 391.491 145.035C396.477 148.316 402.315 149.957 409.005 149.957C415.696 149.957 421.534 148.316 426.52 145.035C431.505 141.754 435.362 136.938 438.089 130.589C440.859 124.239 442.244 116.441 442.244 107.194ZM594.553 41.7393V172.648H570.647L513.694 90.255H512.735V172.648H485.058V41.7393H509.347L565.853 124.069H567.004V41.7393H594.553ZM647.581 41.7393H681.714L717.766 129.694H719.3L755.351 41.7393H789.484V172.648H762.638V87.4425H761.551L727.673 172.009H709.392L675.514 87.1229H674.428V172.648H647.581V41.7393ZM829.102 172.648H799.443L844.635 41.7393H880.302L925.43 172.648H895.771L862.98 71.6541H861.957L829.102 172.648ZM827.248 121.192H897.305V142.798H827.248V121.192ZM935.436 172.648V41.7393H987.084C996.971 41.7393 1005.41 43.5078 1012.4 47.0447C1019.43 50.5391 1024.78 55.5035 1028.44 61.9382C1032.15 68.3303 1034 75.8516 1034 84.5021C1034 93.1953 1032.13 100.674 1028.38 106.938C1024.63 113.16 1019.19 117.933 1012.08 121.256C1005 124.58 996.438 126.242 986.381 126.242H951.8V103.998H981.907C987.191 103.998 991.58 103.273 995.074 101.825C998.569 100.376 1001.17 98.2024 1002.87 95.3047C1004.62 92.407 1005.49 88.8061 1005.49 84.5021C1005.49 80.1555 1004.62 76.4908 1002.87 73.5078C1001.17 70.5249 998.547 68.2663 995.01 66.7322C991.516 65.1555 987.105 64.3672 981.779 64.3672H963.114V172.648H935.436ZM1006.13 113.075L1038.67 172.648H1008.11L976.282 113.075H1006.13ZM1163.32 87.5703H1135.32C1134.81 83.9482 1133.76 80.7308 1132.19 77.9183C1130.61 75.0632 1128.59 72.6342 1126.11 70.6314C1123.64 68.6285 1120.79 67.0945 1117.55 66.0291C1114.35 64.9638 1110.88 64.4311 1107.13 64.4311C1100.35 64.4311 1094.45 66.1143 1089.42 69.4808C1084.4 72.8047 1080.5 77.6626 1077.73 84.0547C1074.96 90.4041 1073.57 98.1172 1073.57 107.194C1073.57 116.526 1074.96 124.367 1077.73 130.717C1080.54 137.066 1084.46 141.86 1089.49 145.099C1094.52 148.337 1100.33 149.957 1106.94 149.957C1110.65 149.957 1114.08 149.467 1117.23 148.487C1120.43 147.506 1123.26 146.079 1125.73 144.204C1128.2 142.286 1130.25 139.964 1131.87 137.237C1133.53 134.509 1134.68 131.398 1135.32 127.904L1163.32 128.032C1162.59 134.04 1160.78 139.836 1157.88 145.418C1155.03 150.958 1151.17 155.923 1146.31 160.312C1141.5 164.658 1135.74 168.11 1129.05 170.667C1122.41 173.181 1114.89 174.438 1106.49 174.438C1094.81 174.438 1084.37 171.796 1075.17 166.512C1066.01 161.228 1058.76 153.579 1053.44 143.565C1048.15 133.55 1045.51 121.427 1045.51 107.194C1045.51 92.9183 1048.19 80.7734 1053.56 70.7592C1058.93 60.745 1066.22 53.1172 1075.43 47.8757C1084.63 42.5916 1094.98 39.9496 1106.49 39.9496C1114.08 39.9496 1121.11 41.0149 1127.58 43.1456C1134.1 45.2763 1139.88 48.3871 1144.91 52.478C1149.94 56.5263 1154.03 61.4908 1157.18 67.3714C1160.38 73.2521 1162.42 79.9851 1163.32 87.5703ZM1177.41 172.648V41.7393H1205.09V95.7521H1261.28V41.7393H1288.89V172.648H1261.28V118.572H1205.09V172.648H1177.41ZM1305.96 172.648V41.7393H1394.17V64.5589H1333.64V95.7521H1389.63V118.572H1333.64V149.829H1394.43V172.648H1305.96ZM1340.48 29.0831L1354.03 -0.000711203H1379.21L1359.72 29.0831H1340.48Z" fill="#231F20"/>
</svg>
